HIERARCHY
ROOT Hips
{
   OFFSET 0.00000 0.00000 0.00000
   CHANNELS 6 Xposition Yposition Zposition Zrotation Xrotation Yrotation
   JOINT Spine
   {
      OFFSET 0.000000 14.268601 0.000000
      CHANNELS 3 Zrotation Xrotation Yrotation
      JOINT Spine1
      {
         OFFSET -0.000000 30.788881 0.153192
         CHANNELS 3 Zrotation Xrotation Yrotation
         JOINT HEad
         {
            OFFSET 0.000000 10.480993 0.013608
            CHANNELS 3 Zrotation Xrotation Yrotation
            End Site
            {
               OFFSET -0.348000 15.329041 3.016740
            }
         }
         JOINT LeftShoulder1
         {
            OFFSET 10.788001 -0.434700 -0.264000
            CHANNELS 3 Zrotation Xrotation Yrotation
            JOINT LeftArm
            {
               OFFSET 12.339240 -0.004056 0.386544
               CHANNELS 3 Zrotation Xrotation Yrotation
               JOINT LeftForeArm
               {
                  OFFSET 39.320280 0.118968 -1.709208
                  CHANNELS 3 Zrotation Xrotation Yrotation
                  JOINT LeftHand
                  {
                     OFFSET 33.077163 0.102432 1.226592
                     CHANNELS 3 Zrotation Xrotation Yrotation
                     End Site
                     {
                        OFFSET 20.093162 -0.720000 1.803492
                     }
                  }
               }
            }
         }
         JOINT RightShoulder
         {
            OFFSET -10.788001 -0.434700 -0.264000
            CHANNELS 3 Zrotation Xrotation Yrotation
            JOINT RightArm
            {
               OFFSET -12.339240 -0.004056 0.386544
               CHANNELS 3 Zrotation Xrotation Yrotation
               JOINT RightForeArm
               {
                  OFFSET -39.476518 0.118968 -1.709208
                  CHANNELS 3 Zrotation Xrotation Yrotation
                  JOINT RightHand
                  {
                     OFFSET -32.990522 0.102432 1.226592
                     CHANNELS 3 Zrotation Xrotation Yrotation
                     End Site
                     {
                        OFFSET -19.957442 -0.720000 1.803492
                     }
                  }
               }
            }
         }
      }
   }
   JOINT LeftUpLeg
   {
      OFFSET 10.734961 -10.400485 0.121980
      CHANNELS 3 Zrotation Xrotation Yrotation
      JOINT LeftLeg
      {
         OFFSET 0.000000 -53.307237 1.647240
         CHANNELS 3 Zrotation Xrotation Yrotation
         JOINT LeftFoot
         {
            OFFSET -0.304260 -50.510883 -1.752708
            CHANNELS 3 Zrotation Xrotation Yrotation
            JOINT LeftToes
            {
               OFFSET -0.048000 -5.298108 10.198920
               CHANNELS 3 Zrotation Xrotation Yrotation
               End Site
               {
                  OFFSET 0.096000 -0.056940 11.735748
               }
            }
         }
      }
   }
   JOINT RightUpLeg
   {
      OFFSET -10.734961 -10.400485 0.121980
      CHANNELS 3 Zrotation Xrotation Yrotation
      JOINT RightLeg
      {
         OFFSET 0.000000 -53.307237 1.647240
         CHANNELS 3 Zrotation Xrotation Yrotation
         JOINT RightFoot
         {
            OFFSET 0.304260 -50.510883 -1.752708
            CHANNELS 3 Zrotation Xrotation Yrotation
            JOINT RightToes
            {
               OFFSET 0.048000 -5.298108 10.198920
               CHANNELS 3 Zrotation Xrotation Yrotation
               End Site
               {
                  OFFSET -0.096000 -0.164940 11.735748
               }
            }
         }
      }
   }
}
MOTION
Frames: 16
Frame Time: 0.016670
-90.381039 103.448628 15.964321 44.545565 35.574046 110.124274 14.128422 60.263982 128.839743 26.578342 -13.540452 -132.086897 -23.007774 13.255387 26.906533 284.122865 -55.204635 269.044184 924.606314 -86.298286 905.656255 -14.988123 126.830998 -55.648977 -136.220733 -17.599451 -117.819192 -6.679056 55.749391 47.249101 49.942090 106.799584 242.389753 15.365110 181.207733 71.673048 -11.919484 -14.368652 75.161519 21.624087 27.513050 45.966080 8.474456 22.581056 10.944547 -11.317078 9.724639 -22.526971 -8.429037 -5.792125 -60.296165 -47.130122 55.536582 73.074070 11.803744 21.890666 58.576262 -33.798778 37.826909 -23.697580 35.296935 -43.785044 -71.406739
-90.462254 102.975996 18.620059 43.666188 34.002591 109.301120 13.776392 60.354359 131.017085 25.394385 -10.356901 -131.431828 -23.811148 15.814994 28.115844 295.623947 -49.338800 281.179244 940.799654 -83.600894 916.026012 -18.829035 127.247462 -53.178422 -136.663998 -15.442009 -119.315892 -1.389658 58.196627 44.269458 41.275639 106.846944 249.990278 16.831020 181.458756 72.907010 -11.464101 -14.788372 70.450847 23.601715 25.929657 47.108996 9.605105 22.543789 6.163637 -11.556917 9.542634 -22.204528 4.516906 1.323785 -64.955495 -46.974254 55.347045 77.107290 12.922602 18.233651 48.962447 -34.448961 33.183344 -21.928647 33.804457 -43.856187 -67.099608
-90.453328 102.591084 21.032669 43.534007 32.789775 109.695106 14.647964 60.566819 131.361613 24.623170 -8.906555 -130.749355 -23.758096 19.007134 29.401410 303.117484 -43.593935 289.787468 955.388939 -79.886951 926.547836 -21.802717 127.169393 -49.992094 -136.001101 -14.073560 -120.376033 2.277106 59.448587 41.353739 33.853122 106.458525 256.404045 18.184202 181.261609 73.287411 -11.301426 -18.817511 68.865977 24.373926 25.497812 48.127436 9.665511 21.389957 2.229578 -11.124864 10.205285 -21.666038 -2.782308 -3.097305 -59.625079 -46.822975 56.098246 79.942098 15.691738 14.337030 40.258641 -33.115885 28.644791 -20.248851 34.941728 -39.948130 -64.816193
-90.358609 102.335289 23.127949 45.187384 33.483168 112.032629 16.666497 61.378983 129.320930 24.635220 -9.655816 -130.515667 -23.389670 22.102736 30.936833 307.015582 -38.599735 295.356586 967.888731 -76.235436 936.882951 -24.601940 127.487462 -46.901215 -135.266665 -12.740241 -122.680402 5.397458 60.020868 39.278782 28.360472 106.251242 261.428742 19.743003 180.470441 73.423345 -11.079256 -19.915949 66.387315 25.776692 25.581377 48.256837 10.366873 20.465943 -1.337449 -10.774889 11.466852 -21.822521 -2.575558 -2.737677 -58.046083 -47.209482 58.918441 83.735701 19.792638 12.672088 34.436687 -32.806068 22.445091 -17.593092 34.379641 -39.394731 -61.095359
-90.252608 102.274626 25.070927 45.985024 31.973027 112.509874 19.041961 61.994157 128.257347 25.190641 -9.567726 -129.614082 -22.830423 24.703025 32.749582 306.762155 -34.517700 298.352662 979.483660 -73.198932 946.997969 -26.974854 128.741621 -43.975066 -133.719340 -12.007770 -124.768445 6.662246 59.536464 37.250127 24.205050 106.044472 265.468580 21.313747 179.843320 73.279324 -10.778586 -23.014807 65.465259 26.741739 25.963858 48.452245 11.054526 17.616511 -3.862359 -10.812306 11.886545 -21.718864 -4.006038 -4.441859 -54.824429 -47.343709 59.856335 84.734473 22.404182 7.950841 29.747598 -31.148029 18.366932 -15.152841 33.182876 -37.425284 -58.934356
-90.124539 102.380827 26.814057 46.425878 30.985157 112.170079 20.732727 62.176148 127.462490 26.227867 -9.608681 -128.392161 -22.465296 26.467217 34.907731 302.481703 -31.967809 298.399217 989.763150 -71.989723 956.555098 -29.163354 131.282151 -41.760965 -131.855996 -11.550183 -127.930632 6.811841 58.219303 36.085392 22.099267 106.633180 268.290404 23.008249 179.427430 73.014258 -10.204371 -24.024000 63.815769 27.332320 26.778110 48.687941 11.216837 16.652749 -3.854941 -10.604158 11.852869 -21.633422 -3.360841 -6.837192 -54.552745 -46.410907 60.101498 84.732144 23.196630 5.639474 26.417466 -30.181530 15.852700 -13.141029 32.320786 -36.225694 -57.652951
-89.980019 102.692870 28.328893 47.211688 30.997588 111.097309 22.236808 61.997634 126.310729 26.764959 -10.255929 -127.297282 -21.985718 28.453682 37.869301 294.795090 -30.921274 294.858693 998.392902 -73.237427 966.256480 -31.073058 135.337111 -40.604303 -129.447330 -12.243754 -130.937937 5.500933 55.800228 35.556711 22.482047 108.398087 270.050517 24.984175 179.501989 72.896259 -9.422072 -25.662890 63.272940 27.497107 28.221956 49.285050 10.988635 17.002305 -1.716562 -10.759393 10.440905 -21.402282 -4.608267 -6.380455 -40.455070 -45.006210 60.482425 83.920185 22.628381 6.151483 24.268956 -27.332288 13.381947 -12.277875 29.844901 -34.905402 -57.882841
-89.835099 102.944897 29.595639 47.163279 30.184826 111.135463 23.769926 58.793237 125.880127 26.474151 -10.338752 -125.947705 -22.335825 27.710178 41.333388 284.501968 -31.290678 287.547849 1003.828749 -77.933859 976.166265 -32.888587 141.451223 -40.775106 -127.251957 -14.679451 -133.846409 2.023032 53.103799 35.865730 26.959436 112.356284 271.279650 25.862843 180.904746 71.147301 -8.229419 -25.225401 62.044817 27.622509 29.233961 49.419315 10.892930 16.700600 1.911527 -10.749464 12.780414 -21.792289 -2.055281 -6.146610 -50.162303 -42.778923 59.722600 82.042327 22.589462 4.521744 23.183998 -24.998503 11.859018 -11.288555 28.640573 -31.692733 -56.880716
-89.687527 103.337887 30.610907 47.621763 32.612046 110.298771 26.832205 49.263272 127.285998 25.677565 -9.759364 -124.254583 -24.172741 21.265311 45.748880 272.806935 -34.185442 279.217532 1001.296990 -86.792552 988.940795 -31.103162 154.377425 -39.282474 -126.417799 -20.744652 -133.454711 -5.029337 49.339337 36.835401 38.057298 120.079807 273.149947 20.716234 185.637684 59.685205 -6.810003 -24.453616 62.248131 26.741371 30.943510 49.827186 9.428876 19.633676 6.374041 -11.175151 14.426034 -22.605474 -1.100548 -5.510255 -50.372280 -41.719185 60.313644 80.204596 21.585580 9.638482 22.688676 -23.618526 10.313877 -11.047338 28.432449 -32.479882 -56.669878
-89.549473 103.844069 31.400392 47.479059 32.403927 108.609700 27.632789 46.282677 127.745438 24.627326 -9.020353 -122.281123 -24.895910 20.444570 49.182748 260.179855 -33.851852 268.575223 1001.797724 -94.779837 993.744221 -32.898293 160.707111 -40.911173 -123.772057 -24.063745 -136.324675 -10.905116 46.447974 36.853881 45.312469 125.239592 274.871401 19.014429 188.524805 54.933733 -4.811724 -23.507027 57.510862 25.959633 31.384917 50.164198 9.458537 20.539111 10.136696 -12.523603 15.738709 -22.920904 0.292558 -4.868305 -55.410767 -38.940428 59.710805 77.866957 19.632151 13.522048 21.039155 -21.528056 8.342082 -11.902265 27.625805 -34.184134 -55.517816
-89.425810 104.424733 32.031774 48.514622 32.079022 108.673043 27.949392 44.529449 127.208189 25.536447 -9.479127 -121.498929 -25.058299 20.764451 52.231218 248.409554 -32.129534 259.877442 957.752293 -101.117242 948.688687 -34.687362 166.257965 -42.855158 -120.750614 -26.556906 -139.134437 -15.199821 43.526354 37.136210 50.133869 129.018708 276.042560 20.233728 189.010049 54.277157 -3.579717 -24.141524 54.780535 26.387111 31.824812 50.496248 10.001247 20.215408 13.146577 -14.379481 17.259355 -22.905591 1.093204 -3.964331 -56.966418 -37.485629 59.571899 75.084604 19.224339 13.639798 19.729386 -12.714313 4.910435 -12.828752 32.667057 -25.646086 -37.519906
-89.304541 104.969729 32.497267 47.435394 31.474133 108.442524 27.612305 43.361056 127.287938 26.616448 -10.058788 -120.367672 -25.025475 21.172070 55.055276 237.324075 -31.098893 252.213068 963.624289 -100.873589 955.673949 -35.516485 172.750511 -46.244137 -118.099203 -28.774901 -142.012419 -18.759454 40.718091 37.117003 51.209494 130.747347 276.806475 21.620762 188.840797 54.346022 -2.928260 -24.717604 52.910562 25.796523 31.665805 51.262974 9.316776 19.883873 15.419842 -16.609343 19.116171 -22.707527 2.440523 -2.924674 -59.223341 -35.438378 58.627994 73.412267 18.123275 14.404321 19.266321 -14.291155 5.897983 -12.678876 29.217285 -32.801072 -43.668862
-89.217089 105.482233 32.894251 46.228052 30.406892 108.347564 26.760637 41.284245 127.199146 28.001110 -11.234795 -119.766725 -24.581713 20.933428 57.688993 226.806868 -30.011592 246.025627 968.878180 -99.658279 962.377697 -35.613016 179.268820 -50.465222 -115.278184 -30.152481 -145.353433 -21.782361 38.360586 37.737782 50.573630 131.885803 277.436820 22.709870 188.164881 54.088907 -2.812684 -25.988467 51.919328 25.137055 31.658333 52.281242 8.268056 18.420679 17.417030 -19.125059 21.172244 -22.094388 4.968632 -2.233330 -60.222536 -34.562075 56.882966 71.209298 16.419331 14.095137 18.355356 -10.491673 7.012907 -13.210256 35.945206 -20.431285 -23.727304
-89.095114 106.019619 33.115134 45.905056 30.652970 109.847323 26.717965 40.805459 126.180286 29.787695 -12.665287 -120.274604 -24.396488 20.148592 60.209757 218.232071 -27.684647 240.328539 974.376537 -97.585945 968.125657 -36.019429 186.466391 -54.767093 -114.208836 -32.571823 -145.470257 -24.210242 36.694812 37.991865 48.453068 132.010304 278.308243 24.036928 187.005839 54.100050 -3.003668 -26.725939 51.997199 24.408371 32.141006 53.007862 7.710770 17.144767 18.957036 -21.714525 23.290832 -21.349216 6.932454 -2.996596 -60.942308 -32.580064 57.152848 69.852515 17.165164 15.902244 18.656568 -8.937373 6.166697 -13.204892 31.685248 -30.130270 -30.375036
-88.961056 106.532553 33.319945 44.357991 30.187005 110.458154 26.316596 38.896797 126.513832 32.018298 -13.691560 -119.657442 -24.476842 19.246676 62.552081 211.287845 -24.987581 235.653711 979.140293 -95.203186 973.438123 -36.127500 193.940967 -59.848064 -113.434259 -34.384907 -144.915632 -26.166786 35.383102 37.975182 45.254801 131.299185 279.599695 25.120947 185.498772 53.575495 -3.313817 -27.661768 52.025083 23.264415 32.092863 53.620793 6.627912 15.388141 20.083779 -24.355869 25.935975 -20.622539 10.279165 -3.390244 -61.370001 -31.949289 55.553692 68.149968 16.206270 15.485736 18.702783 -6.723743 5.710436 -13.933739 37.879690 -13.874821 -20.535763
-88.797864 107.048071 33.438169 43.548873 29.725393 111.025852 25.570669 37.839760 126.722767 34.173219 -14.371913 -119.621051 -24.509330 18.064653 64.699356 204.873409 -21.943427 232.023848 982.676582 -92.956935 978.150626 -36.356933 200.508030 -64.804357 -113.024215 -35.436452 -144.073961 -27.161364 34.824805 38.244842 41.583011 130.359925 280.904152 25.905919 183.506774 52.545994 -3.635866 -28.360359 51.917596 22.308708 32.636990 54.098445 6.061725 13.524818 21.004449 -27.123748 28.138689 -19.679162 13.694440 -4.216726 -62.011895 -30.771850 54.909417 66.953264 16.040634 16.063485 19.464921 -5.155893 6.106823 -14.299496 38.332323 -19.418462 -23.172014
